<svg id="Logotipo_Novaz" data-name="Logotipo Novaz" xmlns="http://www.w3.org/2000/svg" viewBox="0 0 380.13 105.72"><defs><style>.cls-1{fill:#ed3237;fill-rule:evenodd;}.cls-2{fill:#fcfcfc;}</style></defs><path class="cls-1" d="M452.52,200.39V209H426.59v-8.64Z" transform="translate(-72.39 -200.39)"/><path class="cls-1" d="M392,295.43v8.64H366.11v-8.64Z" transform="translate(-72.39 -200.39)"/><path class="cls-1" d="M366.11,200.6h8.64v25.71H418l-51.84,51.83V200.6Z" transform="translate(-72.39 -200.39)"/><path class="cls-1" d="M452.52,303.86h-8.64V278.15H400.67l51.85-51.83v77.55Z" transform="translate(-72.39 -200.39)"/><path class="cls-2" d="M119.93,280.78V227.36h15v76.72h-16L87.56,249.37h-.21v54.71h-15V227.36H89.27l30.45,53.42Zm26.93-15.06c0-36,26.71-40.39,36.86-40.39s36.87,4.38,36.87,40.39-26.72,40.39-36.87,40.39-36.86-4.38-36.86-40.39Zm16,0c0,21.47,12.18,26.82,20.83,26.82s20.84-5.35,20.84-26.82-12.18-26.82-20.84-26.82-20.83,5.34-20.83,26.82Zm93,19.77h-.22l-16.45-58.13H222l25.86,76.72h15.28l26.07-76.72H272.51l-16.66,58.13ZM307,288.26l-5.35,15.82H284.8l27.35-76.72h18.49l27,76.72H340.26l-4.92-15.82Zm14.1-43.59L311.3,275h19.55l-9.51-30.34Z" transform="translate(-72.39 -200.39)"/></svg>